<?xml version="1.0" encoding="iso-8859-1"?>
<!-- Generator: Adobe Illustrator 19.0.0, SVG Export Plug-In . SVG Version: 6.00 Build 0)  -->
<svg version="1.1" id="Layer_1" xmlns="http://www.w3.org/2000/svg" xmlns:xlink="http://www.w3.org/1999/xlink" x="0px" y="0px"
	 viewBox="0 0 511.999 511.999" style="enable-background:new 0 0 511.999 511.999;" xml:space="preserve">
<path style="fill:#FFD782;" d="M407.708,149.015c-16.074-20.332-23.801-30.742-23.801-45.016c0-2.694,1.194-6.547,2.786-10.058
	c1.661-3.659,5.383-5.942,9.402-5.942h3.812c8.836,0,16-7.163,16-16V24c0-8.837-7.164-16-16-16h-16
	c-49.566,0-79.999,55.913-79.999,95.999c0,42.707,21.805,70.292,41.039,94.628c16.227,20.525,30.735,38.88,36.417,68.551
	c14.67,76.607-39.461,151.718-117.311,156.563c-74.249,4.623-136.143-54.471-136.143-127.745c0-48.086,18.055-70.925,38.961-97.37
	c19.234-24.336,41.039-51.921,41.039-94.628C207.909,63.913,177.475,8,127.91,8h-16c-8.837,0-16,7.163-16,16v48
	c0,8.837,7.163,16,16,16h3.812c4.019,0,7.741,2.283,9.401,5.942c1.592,3.511,2.787,7.363,2.787,10.058
	c0,14.273-7.727,24.684-23.801,45.016c-18.581,23.504-42.538,53.813-52.045,102.324c-24.12,123.066,63.613,243.215,188.705,252.117
	c121.504,8.647,223.138-87.76,223.138-207.458C463.907,220.111,431.427,179.018,407.708,149.015z"/>
<g>
	<path style="fill:#FFFFFF;" d="M271.909,463.995c0,8.837-7.164,16-16,16c-8.837,0-16-7.163-16-16c0-8.837,7.163-16,16-16"/>
	<path style="fill:#FFFFFF;" d="M103.91,295.997c0,8.837-7.164,16-16,16c-8.837,0-16-7.163-16-16s7.163-16,16-16"/>
	<path style="fill:#FFFFFF;" d="M439.907,295.997c0,8.837-7.164,16-16,16c-8.837,0-16-7.163-16-16s7.163-16,16-16"/>
	<path style="fill:#FFFFFF;" d="M153.116,414.79c0,8.837-7.164,16-16,16c-8.837,0-16-7.163-16-16s7.163-16,16-16"/>
	<path style="fill:#FFFFFF;" d="M390.701,177.204c0,8.837-7.164,16-16,16c-8.837,0-16-7.163-16-16c0-8.837,7.163-16,16-16"/>
	<path style="fill:#FFFFFF;" d="M374.702,398.79c-8.837,0-16,7.163-16,16s7.163,16,16,16c8.836,0,16-7.163,16-16"/>
	<path style="fill:#FFFFFF;" d="M137.116,161.204c-8.837,0-16,7.163-16,16c0,8.837,7.163,16,16,16c8.836,0,16-7.163,16-16"/>
</g>
<g>
	<path style="fill:#2D2B29;" d="M413.984,144.054c-16.354-20.687-22.077-28.918-22.077-40.055c0-0.878,0.552-3.401,2.072-6.752
		c0.339-0.747,1.189-1.248,2.117-1.248h3.812c13.234,0,24-10.767,24-24V24c0-13.233-10.766-24-24-24h-16
		c-24.954,0-48.059,12.879-65.057,36.264c-14.367,19.761-22.943,45.083-22.943,67.735c0,45.484,22.717,74.227,42.763,99.589
		c15.841,20.038,29.521,37.343,34.836,65.095c6.826,35.642-2.01,72.52-24.24,101.181c-21.315,27.481-51.755,43.78-85.71,45.895
		c-33.481,2.087-65.348-9.397-89.752-32.33c-24.083-22.63-37.895-54.496-37.895-87.431c0-45.308,16.433-66.093,37.24-92.413
		c20.042-25.358,42.76-54.101,42.76-99.585c0-22.653-8.576-47.975-22.942-67.735C175.968,12.879,152.864,0,127.91,0h-16
		c-13.234,0-24,10.767-24,24v48c0,13.233,10.766,24,24,24h3.812c0.927,0,1.778,0.502,2.116,1.246
		c1.521,3.354,2.073,5.877,2.073,6.754c0,11.137-5.723,19.368-22.077,40.055C79.376,167.402,54.096,199.38,44.214,249.8
		c-12.213,62.311,3.004,127.092,41.75,177.73c18.321,23.945,40.734,43.403,66.616,57.832c27.064,15.089,56.544,23.861,87.623,26.072
		c5.297,0.377,10.574,0.565,15.828,0.565c25.154,0,49.767-4.313,73.364-12.876c27.394-9.939,52.16-25.109,73.611-45.088
		c21.501-20.025,38.436-43.724,50.333-70.434c12.322-27.665,18.569-57.139,18.569-87.605
		C471.907,217.325,438.429,174.975,413.984,144.054z M392.099,442.328c-41.088,38.269-94.625,57.142-150.763,53.147
		c-55.948-3.981-107.948-32.291-142.667-77.668c-35.962-47-50.088-107.115-38.756-164.929c9.136-46.616,32.055-75.607,50.471-98.902
		c16.773-21.215,25.525-33.073,25.525-49.977c0-4.908-2.193-10.478-3.502-13.363c-2.932-6.462-9.482-10.637-16.686-10.637h-3.812
		c-4.411,0-8-3.589-8-8V24c0-4.411,3.589-8,8-8h16c19.698,0,38.207,10.538,52.117,29.672c12.264,16.871,19.883,39.222,19.883,58.327
		c0,39.925-19.985,65.21-39.315,89.667c-20.923,26.466-40.685,51.464-40.685,102.331c0,37.333,15.65,73.449,42.938,99.091
		c27.657,25.989,63.777,39.006,101.703,36.639c38.61-2.403,73.185-20.892,97.359-52.057c25.046-32.292,35.001-73.841,27.312-113.996
		c-6.051-31.596-21.569-51.225-38.001-72.01c-19.327-24.454-39.313-49.74-39.313-89.664c0-19.106,7.619-41.457,19.883-58.327
		C345.701,26.538,364.21,16,383.907,16h16c4.411,0,8,3.589,8,8v48c0,4.411-3.589,8-8,8h-3.812c-7.206,0-13.755,4.176-16.688,10.638
		c-1.308,2.883-3.501,8.452-3.501,13.362c0,16.903,8.752,28.762,25.525,49.977c22.99,29.082,54.474,68.909,54.474,142.022
		C455.907,351.226,432.65,404.561,392.099,442.328z"/>
	<path style="fill:#2D2B29;" d="M271.909,455.996c-4.418,0-8,3.582-8,8c0,4.411-3.589,8-8,8s-8-3.589-8-8c0-4.411,3.589-8,8-8
		c4.418,0,8-3.582,8-8c0-4.418-3.582-8-8-8c-13.234,0-24,10.767-24,24c0,13.233,10.766,24,24,24s24-10.767,24-24
		C279.908,459.578,276.327,455.996,271.909,455.996z"/>
	<path style="fill:#2D2B29;" d="M103.91,287.997c-4.418,0-8,3.582-8,8c0,4.411-3.589,8-8,8s-8-3.589-8-8c0-4.411,3.589-8,8-8
		c4.418,0,8-3.582,8-8c0-4.418-3.582-8-8-8c-13.234,0-24,10.767-24,24s10.766,24,24,24s24-10.767,24-24
		C111.91,291.579,108.329,287.997,103.91,287.997z"/>
	<path style="fill:#2D2B29;" d="M439.907,287.997c-4.418,0-8,3.582-8,8c0,4.411-3.589,8-8,8c-4.411,0-8-3.589-8-8
		c0-4.411,3.589-8,8-8c4.418,0,8-3.582,8-8c0-4.418-3.582-8-8-8c-13.234,0-24,10.767-24,24s10.766,24,24,24
		c13.234,0,24-10.767,24-24C447.907,291.579,444.326,287.997,439.907,287.997z"/>
	<path style="fill:#2D2B29;" d="M153.116,406.79c-4.418,0-8,3.582-8,8c0,4.411-3.589,8-8,8s-8-3.589-8-8c0-4.411,3.589-8,8-8
		c4.418,0,8-3.582,8-8c0-4.418-3.582-8-8-8c-13.234,0-24,10.767-24,24s10.766,24,24,24s24-10.767,24-24
		C161.116,410.372,157.535,406.79,153.116,406.79z"/>
	<path style="fill:#2D2B29;" d="M390.701,169.204c-4.418,0-8,3.582-8,8c0,4.411-3.589,8-8,8c-4.411,0-8-3.589-8-8
		c0-4.411,3.589-8,8-8c4.418,0,8-3.582,8-8s-3.582-8-8-8c-13.234,0-24,10.767-24,24c0,13.233,10.766,24,24,24
		c13.234,0,24-10.767,24-24C398.701,172.786,395.12,169.204,390.701,169.204z"/>
	<path style="fill:#2D2B29;" d="M390.701,406.79c-4.418,0-8,3.582-8,8c0,4.411-3.589,8-8,8c-4.411,0-8-3.589-8-8
		c0-4.411,3.589-8,8-8c4.418,0,8-3.582,8-8c0-4.418-3.582-8-8-8c-13.234,0-24,10.767-24,24s10.766,24,24,24
		c13.234,0,24-10.767,24-24C398.701,410.372,395.12,406.79,390.701,406.79z"/>
	<path style="fill:#2D2B29;" d="M137.116,201.204c13.234,0,24-10.767,24-24c0-4.418-3.582-8-8-8s-8,3.582-8,8c0,4.411-3.589,8-8,8
		s-8-3.589-8-8c0-4.411,3.589-8,8-8c4.418,0,8-3.582,8-8s-3.582-8-8-8c-13.234,0-24,10.767-24,24
		C113.116,190.437,123.882,201.204,137.116,201.204z"/>
</g>
<g>
</g>
<g>
</g>
<g>
</g>
<g>
</g>
<g>
</g>
<g>
</g>
<g>
</g>
<g>
</g>
<g>
</g>
<g>
</g>
<g>
</g>
<g>
</g>
<g>
</g>
<g>
</g>
<g>
</g>
</svg>
