<?xml version="1.0" encoding="iso-8859-1"?>
<!-- Generator: Adobe Illustrator 19.0.0, SVG Export Plug-In . SVG Version: 6.00 Build 0)  -->
<svg version="1.1" id="Layer_1" xmlns="http://www.w3.org/2000/svg" xmlns:xlink="http://www.w3.org/1999/xlink" x="0px" y="0px"
	 viewBox="0 0 512.001 512.001" style="enable-background:new 0 0 512.001 512.001;" xml:space="preserve">
<path style="fill:#A5EB78;" d="M454.676,286.515l-160.642-30.539L454.71,225.43c12.002-3.205,23.348-9.517,32.765-18.934
	c28.555-28.554,28.555-74.85,0-103.405c-15.463-15.462-36.127-22.477-56.36-21.193c1.285-20.234-5.731-40.897-21.193-56.36
	c-28.555-28.555-74.851-28.555-103.405,0c-9.425,9.426-15.739,20.783-18.943,32.798l-30.539,160.643L226.489,58.304
	c-3.206-12.003-9.518-23.349-18.934-32.765c-28.555-28.555-74.851-28.555-103.405,0c-15.463,15.464-22.478,36.126-21.193,56.36
	c-20.234-1.284-40.897,5.731-56.36,21.193c-28.554,28.555-28.554,74.851,0,103.405c9.425,9.426,20.783,15.74,32.798,18.943
	l160.642,30.539L59.362,286.525c-12.002,3.205-23.349,9.517-32.765,18.934c-28.555,28.554-28.555,74.851,0,103.405
	c15.463,15.462,36.126,22.477,56.36,21.193c-1.285,20.234,5.73,40.897,21.193,56.36c28.555,28.555,74.851,28.555,103.405,0
	c9.425-9.425,15.74-20.783,18.943-32.797l30.539-160.643l30.547,160.676c3.205,12.002,9.517,23.348,18.934,32.764
	c28.555,28.555,74.85,28.555,103.405,0c15.462-15.462,22.478-36.126,21.193-56.36c20.234,1.284,40.897-5.731,56.36-21.193
	c28.555-28.554,28.555-74.851,0-103.405C478.049,296.033,466.691,289.719,454.676,286.515z"/>
<g>
	<path style="fill:#8CD76E;" d="M257.033,254.942v-35.976L226.489,58.304c-3.206-12.003-9.517-23.349-18.934-32.765
		c-28.555-28.555-74.85-28.555-103.405,0c-15.463,15.464-22.478,36.126-21.193,56.36c-0.357-0.022-0.715-0.023-1.073-0.04
		l174.117,174.117L257.033,254.942z"/>
	<path style="fill:#8CD76E;" d="M220.022,255.975l0.015,0.003L59.362,286.525c-12.002,3.205-23.349,9.517-32.765,18.934
		c-28.555,28.554-28.555,74.851,0,103.405c15.189,15.189,35.394,22.207,55.283,21.233l174.121-174.121L220.022,255.975
		L220.022,255.975z"/>
	<path style="fill:#8CD76E;" d="M257.033,255.975h37.013l160.663-30.545c12.002-3.205,23.348-9.517,32.764-18.934
		c28.555-28.554,28.555-74.85,0-103.405c-15.462-15.462-36.126-22.477-56.36-21.193c0.023-0.359,0.023-0.718,0.041-1.079
		L257.032,254.941v1.033H257.033z"/>
	<path style="fill:#8CD76E;" d="M257.033,292.992l0.003-0.017l30.547,160.676c3.205,12.002,9.517,23.347,18.934,32.764
		c28.555,28.555,74.85,28.555,103.405,0c15.19-15.19,22.209-35.397,21.233-55.288L257.033,257.007V292.992z"/>
</g>
<path style="fill:#2D2B29;" d="M454.347,285.322c-0.193-0.052-0.388-0.096-0.584-0.133L300.216,256l153.578-29.198
	c0.197-0.037,0.393-0.083,0.588-0.134c13.141-3.509,25.199-10.475,34.869-20.145c30.332-30.333,30.332-79.686,0-110.019
	c-13.674-13.673-31.935-21.671-51.136-22.619c-0.949-19.199-8.947-37.464-22.62-51.136c-30.331-30.331-79.685-30.331-110.017,0
	c-9.677,9.677-16.646,21.746-20.155,34.904c-0.052,0.193-0.096,0.388-0.133,0.584l-29.19,153.547L226.803,58.207
	c-0.038-0.197-0.083-0.394-0.134-0.588c-3.511-13.143-10.477-25.2-20.145-34.869c-30.331-30.33-79.685-30.331-110.017,0
	C82.834,36.421,74.834,54.686,73.886,73.885c-19.199,0.949-37.465,8.947-51.136,22.619c-30.332,30.333-30.332,79.686,0,110.018
	c9.678,9.679,21.747,16.648,34.905,20.156c0.193,0.052,0.388,0.096,0.584,0.133l153.546,29.189L58.207,285.198
	c-0.197,0.037-0.393,0.083-0.588,0.134c-13.141,3.509-25.199,10.475-34.869,20.145c-30.332,30.333-30.332,79.686,0,110.019
	c13.673,13.673,31.935,21.671,51.136,22.619c0.949,19.199,8.947,37.464,22.62,51.136c15.166,15.165,35.088,22.749,55.008,22.749
	c19.922,0,39.843-7.584,55.009-22.75c9.678-9.678,16.647-21.747,20.154-34.903c0.052-0.194,0.096-0.388,0.133-0.584L256,300.217
	l29.198,153.577c0.038,0.197,0.083,0.394,0.134,0.588c3.511,13.143,10.477,25.2,20.146,34.869
	C320.644,504.416,340.565,512,360.487,512s39.843-7.584,55.008-22.749c13.673-13.673,21.671-31.937,22.62-51.136
	c19.199-0.949,37.464-8.947,51.136-22.619c30.332-30.333,30.332-79.686,0-110.019C479.573,295.799,467.502,288.83,454.347,285.322z
	 M301.357,61.626c2.784-10.245,8.243-19.643,15.799-27.2c23.892-23.893,62.769-23.893,86.662,0
	c11.69,11.69,18.104,27.661,17.865,44.212l-11.719,11.719c-3.226,3.226-3.226,8.453,0,11.678c1.612,1.612,3.725,2.418,5.839,2.418
	s4.227-0.806,5.839-2.418l11.72-11.72c16.555-0.246,32.522,6.175,44.212,17.866c23.892,23.892,23.892,62.769,0,86.662
	c-7.551,7.55-16.94,13.007-27.17,15.792L280.8,242.88l116.258-116.258c3.226-3.226,3.226-8.453,0-11.678
	c-3.225-3.224-8.453-3.224-11.677,0L269.12,231.202L301.357,61.626z M34.428,194.844c-23.892-23.892-23.892-62.769,0-86.662
	C46.118,96.491,62.085,90.075,78.64,90.318l11.72,11.72c1.612,1.612,3.725,2.418,5.839,2.418s4.227-0.806,5.839-2.418
	c3.226-3.226,3.226-8.453,0-11.678L90.318,78.64c-0.238-16.551,6.175-32.523,17.865-44.212c23.893-23.893,62.77-23.892,86.662,0
	c7.548,7.548,13.005,16.937,15.792,27.17l32.244,169.604L126.622,114.943c-3.225-3.224-8.453-3.224-11.677,0
	c-3.226,3.226-3.226,8.453,0,11.678L231.203,242.88L61.628,210.644C51.385,207.861,41.984,202.401,34.428,194.844z M210.644,450.373
	c-2.783,10.243-8.242,19.642-15.799,27.2c-23.892,23.892-62.769,23.894-86.662,0c-11.69-11.69-18.104-27.661-17.865-44.212
	l11.719-11.719c3.226-3.226,3.226-8.453,0-11.678c-3.225-3.224-8.453-3.224-11.677,0l-11.72,11.72
	c-16.555,0.243-32.522-6.175-44.212-17.865c-23.892-23.892-23.892-62.769,0-86.662c7.551-7.55,16.941-13.007,27.17-15.792
	l169.605-32.244L114.943,385.378c-3.226,3.226-3.226,8.453,0,11.678c1.612,1.612,3.725,2.418,5.839,2.418s4.227-0.806,5.839-2.418
	l116.259-116.259L210.644,450.373z M477.573,403.818c-11.691,11.691-27.655,18.108-44.212,17.865l-11.72-11.72
	c-3.225-3.224-8.453-3.224-11.677,0c-3.226,3.226-3.226,8.453,0,11.678l11.719,11.719c0.238,16.551-6.175,32.523-17.865,44.212
	c-23.892,23.894-62.77,23.893-86.662,0c-7.548-7.548-13.005-16.937-15.792-27.17L269.12,280.799l116.259,116.258
	c1.612,1.612,3.725,2.418,5.839,2.418s4.227-0.806,5.839-2.418c3.226-3.226,3.226-8.453,0-11.678L280.799,269.12l169.575,32.236
	c10.243,2.784,19.643,8.242,27.201,15.801C501.467,341.049,501.467,379.924,477.573,403.818z"/>
<g>
</g>
<g>
</g>
<g>
</g>
<g>
</g>
<g>
</g>
<g>
</g>
<g>
</g>
<g>
</g>
<g>
</g>
<g>
</g>
<g>
</g>
<g>
</g>
<g>
</g>
<g>
</g>
<g>
</g>
</svg>
